<svg xmlns="http://www.w3.org/2000/svg" width="95" height="22" fill="none" viewBox="0 0 95 22">
    <path fill="#000" d="M9.798 21v-2.359H8.735c-1.763 0-2.644-.259-3.033-1.348-.181-.518-.259-1.296-.259-2.384v-6.48h4.355v-2.23H5.443V2.287H3.318c0 .207-.026.83-.026 1.425-.026.285-.026.519-.026.648-.078 1.115-.182 1.607-.622 1.789-.233.104-.57.13-1.011.13H.207v2.15H3.11v6.844c0 2.955.519 4.51 1.97 5.21.726.337 1.763.518 3.085.518h1.633zm6.05 0v-7.776c0-3.085 1.607-5.236 4.458-5.236 2.929 0 4.07 1.866 4.07 4.588V21h2.514v-9.046c0-3.784-1.867-6.169-5.677-6.169-2.644 0-4.458 1.348-5.365 3.395V1.171h-2.41V21h2.41zM32.756 4.308c1.193 0 1.763-.493 1.763-1.789 0-1.322-.57-1.788-1.763-1.788-1.192 0-1.788.466-1.788 1.788s.492 1.789 1.788 1.789zM31.434 21H34V6.2h-2.566V21zm13.407-7.672L49.66 21h2.904l-5.806-9.124L52.254 6.2h-3.162l-7.569 7.802-.363.44V1.172h-2.41V21h2.41v-3.836l3.68-3.836zm23.641 3.266h-2.721c-.545 1.736-2.048 2.67-4.2 2.67-3.058 0-4.82-1.763-5.002-4.822h12.13V13.25c0-2.67-1.01-5.029-3.136-6.428-1.037-.7-2.384-1.037-4.017-1.037-3.059 0-5.34 1.348-6.558 3.68-.596 1.193-.907 2.54-.907 4.096v.311c0 4.614 2.462 7.517 7.387 7.517 3.68 0 6.169-1.737 7.024-4.795zm-6.92-8.761c2.85 0 4.406 1.788 4.613 4.613h-9.59c.311-2.877 2.125-4.613 4.977-4.613zM75.106 21v-7.75c0-3.162 1.581-5.262 4.51-5.262 2.877 0 3.992 1.815 3.992 4.588V21h2.54v-8.994c0-3.759-1.97-6.221-5.78-6.221-2.825 0-4.614 1.503-5.417 3.784l-.26-3.37h-2.125V21h2.54zm17.552.285c1.245 0 1.867-.518 1.867-1.866s-.623-1.866-1.84-1.866c-1.245 0-1.893.518-1.893 1.866 0 1.4.544 1.866 1.866 1.866z"/>
</svg>
